# This file uses centimeters as units for non-parametric coordinates.

mtllib door.mtl
g default
v -22.655100 0.054600 -0.987000
v 22.655100 0.054600 -0.987000
v 22.655100 0.054600 0.987100
v -22.655100 0.054600 0.987100
v 22.655100 89.123001 -0.987000
v -22.655100 89.123001 -0.987000
v -22.655100 89.123001 0.987100
v 22.655100 89.123001 0.987100
vt 0.762900 0.799000
vt 0.762900 0.170000
vt 0.790300 0.799000
vt 0.790300 0.170000
vt 0.799400 0.094200
vt 0.799400 0.913900
vt 0.763700 0.094200
vt 0.763700 0.913900
vt 0.806400 0.037500
vt 0.806400 0.962500
vt 0.193600 0.037500
vt 0.193600 0.962500
vt 0.774400 0.862200
vt 0.774400 0.142700
vt 0.790600 0.862200
vt 0.790600 0.142700
vt 0.806400 0.962500
vt 0.193600 0.962500
vt 0.806400 0.037500
vt 0.193600 0.037500
vt 0.769000 0.116300
vt 0.786200 0.116300
vt 0.769000 0.873900
vt 0.786200 0.873900
vn 0.000000 -1.000000 0.000000
vn 0.000000 -1.000000 0.000000
vn 0.000000 -1.000000 0.000000
vn 0.000000 -1.000000 0.000000
vn 0.000000 -1.000000 0.000000
vn 0.000000 -1.000000 0.000000
vn 0.000000 1.000000 0.000000
vn 0.000000 1.000000 0.000000
vn 0.000000 1.000000 0.000000
vn 0.000000 1.000000 0.000000
vn 0.000000 1.000000 0.000000
vn 0.000000 1.000000 0.000000
vn 0.000000 0.000000 1.000000
vn 0.000000 0.000000 1.000000
vn 0.000000 0.000000 1.000000
vn 0.000000 0.000000 1.000000
vn 0.000000 0.000000 1.000000
vn 0.000000 0.000000 1.000000
vn 1.000000 0.000000 0.000000
vn 1.000000 0.000000 0.000000
vn 1.000000 0.000000 0.000000
vn 1.000000 0.000000 0.000000
vn 1.000000 0.000000 0.000000
vn 1.000000 0.000000 0.000000
vn 0.000000 0.000000 -1.000000
vn 0.000000 0.000000 -1.000000
vn 0.000000 0.000000 -1.000000
vn 0.000000 0.000000 -1.000000
vn 0.000000 0.000000 -1.000000
vn 0.000000 0.000000 -1.000000
vn -1.000000 0.000000 -0.000000
vn -1.000000 0.000000 -0.000000
vn -1.000000 0.000000 -0.000000
vn -1.000000 0.000000 -0.000000
vn -1.000000 0.000000 -0.000000
vn -1.000000 0.000000 -0.000000
s off
g door:InteriorDoor
usemtl door:initialShadingGroup
f 1/1/1 2/2/2 4/3/3
f 4/3/4 2/2/5 3/4/6
f 5/5/7 6/6/8 8/7/9
f 8/7/10 6/6/11 7/8/12
f 3/9/13 8/10/14 4/11/15
f 4/11/16 8/10/17 7/12/18
f 8/13/19 3/14/20 5/15/21
f 5/15/22 3/14/23 2/16/24
f 6/17/25 5/18/26 1/19/27
f 1/19/28 5/18/29 2/20/30
f 1/21/31 4/22/32 6/23/33
f 6/23/34 4/22/35 7/24/36
